<svg xmlns="http://www.w3.org/2000/svg" version="1.1" xmlns:xlink="http://www.w3.org/1999/xlink" xmlns:svgjs="http://svgjs.dev/svgjs" viewBox="0 0 1920 1080" style="overflow: hidden; height: 85vh;" class="overflow-hidden rounded-md drop-shadow-lg transition duration-300"><rect width="1920" height="1080" fill="#43338f"/><g clip-path="url(&quot;#SvgjsClipPath1260&quot;)"><g transform="matrix(-0.43079758242829913,-1.0662614327518054,1.0662614327518054,-0.43079758242829913,748.2786383734156,1759.3488226335594)"><path d="M0,-1080C-4.810793098347848,-1008.581254220733,-40.65410304501983,-800.1677826119987,-28.864758590087092,-651.4875253243977C-17.075414135154354,-502.8072680367966,70.74317275385243,-347.4143577016433,70.73606672959642,-187.91845627439363C70.7289607053404,-28.42255484714397,-8.383347940404342,149.369670709984,-28.907394735623214,305.48788323910026C-49.431441530842086,461.6060957682165,-55.34710809524002,581.5062343087008,-52.40821404171682,748.7908189003039C-49.46931998819362,916.075403491907,-8.482909648675836,1157.4293151415825,-11.274030414484002,1309.195390788719C-14.065151180292169,1460.9614664358553,-71.03394370564648,1517.5865045812416,-69.15493863656582,1659.3872727831217C-67.27593356748515,1801.1880409850019,-11.525823106094302,2076.5645454638534,0,2160L 1920 2160 L 1920 -1080 Z" fill="url(&quot;#SvgjsLinearGradient1255&quot;)"/><path d="M384,-1080C392.48803020058983,-971.6888120950202,437.51871240956086,-633.0626967294761,434.928181203539,-430.13287257012126C432.33764999751713,-227.20304841076646,369.564597728736,-82.25153435841182,368.4568127638688,137.57894495612896C367.34902779900165,357.4094242706698,415.1119496180941,664.9046161245303,428.2814714143362,888.8500033171234C441.45099321057825,1112.7953905097165,454.8541887770439,1269.392935331208,447.47394354132115,1481.2512681116875C440.0936983055984,1693.109600892167,394.5789905902202,2046.8752113519479,384,2160L 1920 2160 L 1920 -1080 Z" fill="url(&quot;#SvgjsLinearGradient1256&quot;)"/><path d="M768,-1080C762.273864659398,-1020.6537240578314,721.8063234033472,-871.7646581272971,733.6431879563877,-723.922344346988C745.4800525094282,-576.0800305666788,833.4203375898908,-335.61871571464235,839.0211873182429,-192.94611731814535C844.6220370465951,-50.27351892164839,784.229031499281,20.85411036960268,767.2482863265006,132.11324603199387C750.2675411537203,243.37238169438507,741.5546550438834,347.378755329198,737.1367162815613,474.6086966562017C732.7187775192393,601.8386379832053,742.6093473442338,761.5052948305314,740.7406537525683,895.492893994016C738.8719601609027,1029.4804931575006,711.1996405889585,1129.116310291575,725.9245547315682,1278.5342916371092C740.6494688741778,1427.9522729826433,822.0775643968213,1645.0898306734061,829.0901386082267,1792.0007820672213C836.102712819632,1938.9117334610364,778.1816897680378,2098.6667970112035,768,2160L 1920 2160 L 1920 -1080 Z" fill="url(&quot;#SvgjsLinearGradient1257&quot;)"/><path d="M1152,-1080C1143.884283073037,-982.1017258563022,1093.166084800129,-695.1584412213631,1103.305698438222,-492.61035513781343C1113.4453120763148,-290.0622690542638,1211.5455614953667,-81.76633101547156,1212.8376818285574,135.28851650129772C1214.129802161748,352.343364018067,1124.544361533422,590.5771569085003,1111.0584204373656,809.7187299628022C1097.5724793413092,1028.860303017104,1125.0984386584469,1225.0910764875755,1131.9220352522193,1450.1379548271084C1138.7456318459917,1675.1848331666413,1148.6536725420365,2041.6896591378513,1152,2160L 1920 2160 L 1920 -1080 Z" fill="url(&quot;#SvgjsLinearGradient1258&quot;)"/><path d="M1536,-1080C1544.4798634202582,-989.0989616556523,1583.7485718761989,-683.1487621127671,1586.8791805215487,-534.5937699339137C1590.0097891668986,-386.0387777550602,1552.9166240310585,-331.69564217889285,1554.7836518720992,-188.67004692687925C1556.6506797131399,-45.64445167486562,1605.6389365552682,176.84673293685572,1598.0813475677926,323.55980157816805C1590.523758580317,470.2728702194804,1527.3845878201894,552.5788153247838,1509.438117947245,691.6083649209947C1491.4916480743007,830.6379145172057,1478.2804038960157,985.444853569154,1490.4025283301264,1157.7370991554337C1502.524652764237,1330.0293447417134,1574.5712859402638,1558.3180216312453,1582.1708645519095,1725.361838438673C1589.7704431635552,1892.4056552461007,1543.695144091985,2087.5603064064453,1536,2160L 1920 2160 L 1920 -1080 Z" fill="url(&quot;#SvgjsLinearGradient1259&quot;)"/></g></g><defs><linearGradient x1="0.1" y1="0" x2="0" y2="1" id="SvgjsLinearGradient1255"><stop stop-color="#43338f" offset="0"/><stop stop-color="#34338f" offset="0"/></linearGradient><linearGradient x1="0.1" y1="0" x2="0" y2="1" id="SvgjsLinearGradient1256"><stop stop-color="#624ec0" offset="0"/><stop stop-color="#4f4ec0" offset="0.2"/></linearGradient><linearGradient x1="0.1" y1="0" x2="0" y2="1" id="SvgjsLinearGradient1257"><stop stop-color="#9385d4" offset="0"/><stop stop-color="#8685d4" offset="0.4"/></linearGradient><linearGradient x1="0.1" y1="0" x2="0" y2="1" id="SvgjsLinearGradient1258"><stop stop-color="#c4bde7" offset="0"/><stop stop-color="#bdbde7" offset="0.6"/></linearGradient><linearGradient x1="0.1" y1="0" x2="0" y2="1" id="SvgjsLinearGradient1259"><stop stop-color="#f6f5fb" offset="0"/><stop stop-color="#f5f5fb" offset="0.8"/></linearGradient><clipPath id="SvgjsClipPath1260"><rect width="1920" height="1080"/></clipPath></defs></svg>